# OBJ written from /Users/bennett/Documents/Games/DustExplosions/Assets/GeoSphere2.obj
# Units	meters

o Mesh
v -0.718992 -0.718992 -0.718992
v 0 -0.880581 -0.880581
v 0.718992 -0.718992 -0.718992
v 0.880581 -0.880581 0
v 0.718992 -0.718992 0.718992
v 0 -0.880581 0.880581
v -0.718992 -0.718992 0.718992
v -0.880581 -0.880581 0
v 0 -1.24533 0
v -0.880581 0 -0.880581
v 0 0 -1.24533
v 0.880581 0 -0.880581
v 1.24533 0 0
v 0.880581 0 0.880581
v 0 0 1.24533
v -0.880581 0 0.880581
v -1.24533 0 0
v -0.718992 0.718992 -0.718992
v 0 0.880581 -0.880581
v 0.718992 0.718992 -0.718992
v 0.880581 0.880581 0
v 0.718992 0.718992 0.718992
v 0 0.880581 0.880581
v -0.718992 0.718992 0.718992
v -0.880581 0.880581 0
v 0 1.24533 0
vn -0.268231 -0.925259 -0.268231
vn 0.00704013 -0.943622 -0.330951
vn -0.12888 -0.98325 -0.12888
vn -0.330951 -0.943622 0.00704013
vn 0.281747 -0.886452 -0.36718
vn -0.36718 -0.886452 0.281747
vn 0.357407 -0.862856 0.357407
vn -0.330951 -0.00704013 -0.943622
vn -0.36718 -0.281747 -0.886452
vn 0.357407 -0.357407 -0.862856
vn 0.943622 -0.00704013 -0.330951
vn 0.886452 -0.281747 -0.36718
vn 0.862856 -0.357407 0.357407
vn 0.330951 -0.00704013 0.943622
vn 0.36718 -0.281747 0.886452
vn -0.357407 -0.357407 0.862856
vn -0.943622 -0.00704013 0.330951
vn -0.886452 -0.281747 0.36718
vn -0.862856 -0.357407 -0.357407
vn -0.268231 0.268231 -0.925259
vn 0.00704013 0.330951 -0.943622
vn -0.12888 0.12888 -0.98325
vn 0.281747 0.36718 -0.886452
vn 0.925259 0.268231 -0.268231
vn 0.943622 0.330951 0.00704013
vn 0.98325 0.12888 -0.12888
vn 0.886452 0.36718 0.281747
vn 0.268231 0.268231 0.925259
vn -0.00704013 0.330951 0.943622
vn 0.12888 0.12888 0.98325
vn -0.281747 0.36718 0.886452
vn -0.925259 0.268231 0.268231
vn -0.943622 0.330951 -0.00704013
vn -0.98325 0.12888 0.12888
vn -0.886452 0.36718 -0.281747
vn -0.268231 0.925259 -0.268231
vn -0.330951 0.943622 0.00704013
vn -0.12888 0.98325 -0.12888
vn 0.00704013 0.943622 -0.330951
vn 0.281747 0.886452 -0.36718
vn -0.36718 0.886452 0.281747
vn 0.357407 0.862856 0.357407
vt 0.25 0
vt 0.375 0
vt 0.375 0.166667
vt 0.25 0.166667
vt 0.5 0
vt 0.5 0.166667
vt 0.375 0.333333
vt 0.25 0.333333
vt 0.5 0.333333
vt 1 0.5
vt 0.875 0.5
vt 0.875 0.333333
vt 1 0.333333
vt 0.75 0.5
vt 0.75 0.333333
vt 0.625 0.5
vt 0.625 0.333333
vt 0.5 0.5
vt 0.375 0.5
vt 0.25 0.5
vt 0.125 0.5
vt 0.125 0.333333
vt 0 0.5
vt 0 0.333333
vt 1 0.666667
vt 0.875 0.666667
vt 0.75 0.666667
vt 0.625 0.666667
vt 0.5 0.666667
vt 0.375 0.666667
vt 0.25 0.666667
vt 0.125 0.666667
vt 0 0.666667
vt 0.25 1
vt 0.25 0.833333
vt 0.375 0.833333
vt 0.375 1
vt 0.5 0.833333
vt 0.5 1
mtllib GeoSphere2.mtl
usemtl Default
g Default
f 1/1/1 2/2/2 9/3/3 8/4/4
f 2/2/2 3/5/5 4/6/5 9/3/2
f 8/4/4 9/3/4 6/7/6 7/8/6
f 9/3/7 4/6/7 5/9/7 6/7/7
f 10/10/8 11/11/8 2/12/9 1/13/9
f 11/11/10 12/14/10 3/15/10 2/12/10
f 12/14/11 13/16/11 4/17/12 3/15/12
f 13/16/13 14/18/13 5/9/13 4/17/13
f 14/18/14 15/19/14 6/7/15 5/9/15
f 15/19/16 16/20/16 7/8/16 6/7/16
f 16/20/17 17/21/17 8/22/18 7/8/18
f 17/21/19 10/23/19 1/24/19 8/22/19
f 18/25/20 19/26/21 11/11/22 10/10/8
f 19/26/21 20/27/23 12/14/23 11/11/21
f 20/27/24 21/28/25 13/16/26 12/14/11
f 21/28/25 22/29/27 14/18/27 13/16/25
f 22/29/28 23/30/29 15/19/30 14/18/14
f 23/30/29 24/31/31 16/20/31 15/19/29
f 24/31/32 25/32/33 17/21/34 16/20/17
f 25/32/33 18/33/35 10/23/35 17/21/33
f 18/34/36 25/35/37 26/36/38 19/37/39
f 19/37/39 26/36/39 21/38/40 20/39/40
f 25/35/37 24/31/41 23/30/41 26/36/37
f 26/36/42 23/30/42 22/29/42 21/38/42
